<?xml version="1.0" standalone="no"?><!DOCTYPE svg PUBLIC "-//W3C//DTD SVG 1.1//EN" "http://www.w3.org/Graphics/SVG/1.1/DTD/svg11.dtd"><svg t="1672043210114" class="icon" viewBox="0 0 1024 1024" version="1.1" xmlns="http://www.w3.org/2000/svg" p-id="2150" xmlns:xlink="http://www.w3.org/1999/xlink" width="200" height="200"><path d="M864.256 679.424c-36.864 12.288-71.168 31.744-104.448 53.76-48.128 32.768-88.576 76.8-138.752 106.496-58.368 34.304-134.144 37.376-200.192 35.84-61.44-1.536-120.832-23.04-182.272-24.576 48.128-103.424 153.6-184.832 265.728-202.24 69.12-10.752 139.264-4.096 208.384 5.632 50.688 7.168 101.376 15.36 151.552 25.088zM960.512 223.744c-51.2 92.16-129.536 174.08-210.944 239.104-42.496 33.792-90.624 62.464-143.36 76.8-57.344 15.872-119.296 17.92-178.688 23.552 5.12-59.392 48.128-109.568 88.064-150.528 44.032-45.056 93.696-88.064 150.528-115.2 46.08-22.016 91.136-38.912 141.312-49.664 50.176-10.24 101.888-16.896 153.088-24.064zM431.616 105.984c-7.68 73.728-17.92 146.944-35.328 219.136-16.896 71.168-31.744 145.408-66.048 210.944-60.416 115.712-159.232 204.288-266.24 276.992-25.6-139.264 2.56-279.552 71.68-402.432 69.632-123.904 168.448-237.568 295.936-304.64z" fill="#B9DD80" p-id="2151"></path><path d="M978.432 196.096c10.24-1.536 16.896 8.192 15.872 15.872 0 2.048-0.512 3.584-1.536 5.632-52.736 104.448-141.824 199.68-234.496 270.848-44.544 34.304-94.208 62.976-149.504 77.312-62.464 16.384-129.536 17.92-193.536 24.576-3.584 0.512-6.144-0.512-8.192-2.048-3.584-2.048-6.144-5.632-6.144-10.752-0.512-60.928 34.816-115.2 73.728-158.72 45.056-50.176 98.816-100.352 158.72-133.12 108.032-58.88 225.28-73.216 345.088-89.6zM749.568 463.36c81.408-65.024 160.256-146.944 210.944-239.104-51.2 6.656-102.912 13.312-153.6 24.576-50.176 10.752-94.72 27.648-141.312 49.664-56.832 27.136-106.496 70.144-150.528 115.2-39.936 40.96-82.432 91.136-88.064 150.528 59.392-5.632 121.344-7.68 178.688-23.552 53.248-15.36 101.376-43.52 143.872-77.312zM925.184 665.6c13.312 2.56 10.752 19.968 0.512 24.064-1.536 1.024-3.584 2.048-6.144 2.56-65.536 8.192-125.44 44.544-176.128 84.992-44.032 35.328-84.992 76.288-137.216 98.816-55.808 24.064-125.44 26.624-185.344 25.6-68.096-1.536-133.632-27.648-201.728-24.576-4.096 0-7.68-1.536-9.728-4.096-3.072-2.56-4.608-6.656-2.56-12.288 45.056-113.664 153.088-208.384 273.408-233.472 71.168-14.848 144.384-10.24 216.064-1.024 76.8 10.24 153.088 23.552 228.864 39.424z m-165.376 68.096c32.768-22.528 67.072-41.472 104.448-53.76-50.176-9.728-100.864-18.432-151.552-25.088-68.608-9.216-139.264-16.384-208.384-5.632-112.128 17.408-217.6 98.304-265.728 202.24 61.44 1.536 120.32 23.552 182.272 24.576 66.048 1.536 141.824-2.048 200.192-35.84 50.176-30.208 90.624-73.728 138.752-106.496zM453.632 77.312c3.584 2.048 5.632 5.632 5.12 10.752-8.192 83.456-19.456 166.912-38.912 248.32-17.408 72.192-32.768 145.92-67.584 212.48-65.024 124.928-174.592 219.648-290.304 296.448-4.096 2.56-8.192 2.56-11.264 1.024-3.584-1.024-6.144-4.096-7.168-8.704-31.744-147.968-7.168-301.568 66.56-432.64 76.8-136.704 184.32-261.632 328.192-331.264 5.632-2.56 11.776-0.512 15.36 3.584z m-57.344 247.808c16.896-72.192 27.136-145.408 35.328-219.136-126.976 67.072-225.792 180.736-295.424 304.64-69.12 123.392-97.28 263.168-71.68 402.432 106.496-72.704 205.824-161.28 266.24-276.992 33.792-65.536 48.64-139.776 65.536-210.944z" fill="#77AD3A" p-id="2152"></path></svg>